<?xml version="1.0" encoding="utf-8"?>
<!-- Generator: Adobe Illustrator 18.1.1, SVG Export Plug-In . SVG Version: 6.00 Build 0)  -->
<svg version="1.1" id="Layer_1" xmlns="http://www.w3.org/2000/svg" xmlns:xlink="http://www.w3.org/1999/xlink" x="0px" y="0px"
	 width="256px" height="256px" viewBox="0 0 256 256" enable-background="new 0 0 256 256" xml:space="preserve">
<g>
	<path fill="#3B3A33" d="M37.7,110.4l0.3-0.3c0.4-1.6,1.1-7-4.1-12c-5.2-5-11.4-5.2-13.2-5.1L20.6,93c0,1.8,0.3,7.9,5.3,13.1
		C30.9,111.3,36.1,110.7,37.7,110.4z"/>
	<path fill="#3B3A33" d="M142.5,173.2c3.6-3.7,3.8-8.1,3.8-9.4l-0.1,0c-1.3-0.1-5.8,0.1-9.5,3.7c-0.7,0.7-1.2,1.3-1.6,2v-14.1
		c3.2,2.8,7.4,4.5,11.9,4.5h48.7c6.4,0,12.1-3.3,15.3-8.4h10.6c10,0,18.2-8.2,18.2-18.2v-16.9c1.7,0.1,4.6-0.3,7.4-3.3
		c3.6-3.8,3.9-8.2,3.8-9.5l0,0c-1.3-0.1-5.8,0.1-9.6,3.7c-0.7,0.6-1.2,1.3-1.6,1.9v-1.1c0-1.7-1.4-3.1-3.1-3.1
		c-1.7,0-3.1,1.4-3.1,3.1v13c-0.1-0.1-0.2-0.2-0.2-0.3c-3.8-3.6-8.3-3.8-9.6-3.7l0,0.1c0,1.3,0.2,5.7,3.8,9.5c2.2,2.3,4.4,3,6.1,3.2
		v3.3c0,6.6-5.3,11.9-11.9,11.9h-8.1c0.2-0.9,0.3-1.9,0.3-2.8c0.2-1.4,0.3-4.5-2.8-7.4c-3.4-3.3-7.4-3.4-8.6-3.3l0,0
		c0,1.2,0.2,5.1,3.5,8.5c0.6,0.6,1.2,1.1,1.7,1.5c0,0,0,0,0,0c0,6.6-5.3,11.9-11.9,11.9h-11.5c2.8-3.2,4.5-7.4,4.5-11.9v-23.9
		c2.2,0.2,6.6,0,10.8-4.4c5-5.2,5.3-11.2,5.3-13.1l-0.1-0.1c-1.9-0.1-8,0.1-13.2,5.1c-1.2,1.2-2.2,2.4-2.8,3.6V90.7
		c0-0.2,0-0.3,0-0.5c0,0,0-0.2,0-0.4c1.2,0.2,4.4,0.4,7.5-2.8c3.3-3.4,3.5-7.3,3.5-8.5l0,0c-1.2,0-5.2,0.1-8.6,3.3c-1,1-1.7,2-2.1,3
		c0.4-2.4,1.2-5.1,3-7.2c2.4-2.8,6.3-4.2,11.4-4.2c1.7,0,3.1-1.4,3.1-3.1S205,67,203.2,67c-7.1,0-12.5,2.2-16.1,6.4
		c-5.7,6.6-4.9,15.8-4.7,17.5v8.5c-0.7-1.5-1.7-3.1-3.3-4.6c-5.2-5-11.4-5.2-13.2-5.1l-0.1,0.1c0,1.8,0.3,7.9,5.3,13.1
		c4.6,4.8,9.4,4.7,11.3,4.4v17.3c-0.8-1.2-1.8-2.5-3-3.7c-6.5-6.2-14.2-6.5-16.5-6.4l-0.1,0.1c0,2.3,0.3,9.8,6.6,16.3
		c5,5.2,10.2,5.8,13,5.6v5.4c0,6.6-5.3,11.9-11.9,11.9H147c-6.3,0-11.5-5-11.9-11.2l0.1,0.1c1.1,0.2,4.9,0.7,8.5-3.1
		c3.6-3.7,3.8-8.1,3.8-9.4l-0.1,0c-1.3-0.1-5.8,0.1-9.5,3.7c-1.7,1.7-2.5,3.4-2.9,4.8v-10.8c0.4,0.1,0.7,0.2,1.1,0.2
		c10,0,18.2-8.2,18.2-18.2v-16c1.6,0.2,4.7-0.1,7.7-3.2c3.6-3.7,3.8-8.1,3.8-9.4l0,0c-1.3-0.1-5.8,0.1-9.5,3.7
		c-0.9,0.8-1.5,1.7-2,2.5V59.3c1.7,0.3,6.8,0.8,11.7-4.3c5-5.2,5.3-11.2,5.3-13.1l-0.1-0.1c-1.9-0.1-8,0.1-13.2,5.1
		c-2,1.9-3.1,3.9-3.7,5.6V35.4c0-1.7-1.4-3.1-3.1-3.1c-1.2,0-2.3,0.7-2.8,1.7c-0.6-2.6-2-5.7-5.1-8.7c-6.5-6.3-14.2-6.5-16.5-6.4
		l-0.1,0.1c0,2.3,0.3,9.8,6.6,16.3c6.3,6.5,12.7,5.8,14.7,5.3l0,0v23.3c-0.7-1.5-1.7-3.1-3.3-4.6c-5.2-5-11.4-5.2-13.2-5.1l-0.1,0.1
		c0,1.8,0.3,7.9,5.3,13.1c4.6,4.8,9.4,4.7,11.3,4.4v38c0,6.6-5.3,11.9-11.9,11.9c-0.4,0-0.8,0.1-1.1,0.2v-5.3c0,0,0,0,0-0.1v-9.3
		l0,0c1,0.2,4.4,0.6,7.6-2.8c3.3-3.4,3.4-7.3,3.4-8.5l0,0c-1.2,0-5.2,0.1-8.6,3.3c-1.4,1.3-2.1,2.7-2.5,3.9V83.9
		c0-10-8.2-18.2-18.2-18.2h-3.3c-0.1-1.7-0.7-4.1-3.1-6.4c-3.7-3.6-8.1-3.7-9.4-3.6l0,0c0,1.3,0.2,5.6,3.7,9.3
		c0.3,0.3,0.5,0.5,0.8,0.8H95c-0.5-2.7-1.9-6-5.2-9.1c-6.5-6.2-14.1-6.5-16.5-6.4l-0.1,0.1c0,2.3,0.3,9.8,6.6,16.3
		c5.9,6.1,11.9,5.8,14.2,5.4h22.7c6.6,0,11.9,5.3,11.9,11.9v9c-0.8-2.2-2.2-4.6-4.6-7c-6.5-6.2-14.1-6.5-16.5-6.4l-0.1,0.1
		c0,2.3,0.3,9.8,6.6,16.3c6.2,6.4,12.5,5.8,14.6,5.4v30.2c0,0,0,0,0,0v9.9c-0.7-1.4-1.7-2.9-3.2-4.4c-5.2-5-11.4-5.2-13.2-5.1
		l-0.1,0.1c0,1.8,0.3,7.9,5.3,13.1c4.6,4.7,9.2,4.7,11.2,4.4v7.2c0,6.6-5.4,11.9-11.9,11.9h-11.1c2.8-3.2,4.5-7.4,4.5-11.9v-39.2
		c1.5,0.2,4.7,0.1,7.8-3.1c3.5-3.6,3.7-7.9,3.7-9.2l0,0c-1.3-0.1-5.6,0.1-9.3,3.6c-1,1-1.7,2-2.2,2.9v-5.9c0-9.7-7.6-17.7-17.2-18.2
		c-0.5-1-1.2-2.1-2.3-3.2c-3.7-3.6-8.1-3.7-9.4-3.6l0,0c0,1.3,0.2,5.6,3.7,9.3c1.7,1.8,3.5,2.6,4.9,3c0.6,0.5,1.3,0.8,2,0.8
		c6.6,0,11.9,5.3,11.9,11.9v17.4c-0.7-1.4-1.6-2.8-3.1-4.2c-5.2-5-11.4-5.2-13.2-5.1l-0.1,0.1c0,1.8,0.3,7.9,5.3,13.1
		c4.5,4.6,9.1,4.7,11.1,4.4v17.9c-0.7-2-2-4.1-4.2-6.3c-5.9-5.7-12.9-5.9-15-5.8l-0.1,0.1c0,2.1,0.3,8.9,6,14.8
		c5.6,5.8,11.3,5.3,13.2,4.9c-0.2,6.4-5.5,11.5-11.9,11.5H81.6H67.6v-5c1.6,0.3,5.6,0.3,9.4-3.6c4.2-4.3,4.4-9.3,4.4-10.8l-0.1-0.1
		c-1.5-0.1-6.7,0.1-11,4.2c-1.3,1.3-2.2,2.6-2.7,3.8v-25.8c1.5,0.2,4.7,0.1,7.8-3.1c3.5-3.6,3.7-7.9,3.7-9.2l0,0
		c-1.3-0.1-5.6,0.1-9.3,3.6c-1,1-1.7,1.9-2.1,2.9c0.3-6.3,5.5-11.3,11.9-11.3c1.7,0,3.1-1.4,3.1-3.1c0-1.7-1.4-3.1-3.1-3.1
		c-10,0-18.2,8.2-18.2,18.2v10c-0.4-1-1.1-2.1-2.3-3.2c-3.4-3.3-7.5-3.4-8.8-3.4l0,0c0,1.2,0.2,5.2,3.5,8.6c3.1,3.2,6.3,3.1,7.6,2.9
		v27.5h-4.8c-5.7,0-10.4-4-11.6-9.3l0.1,0.1c1.3,0.3,5.6,0.8,9.8-3.6c4.2-4.3,4.4-9.3,4.4-10.8l-0.1-0.1c-1.5-0.1-6.7,0.1-11,4.2
		c-2.4,2.3-3.2,4.6-3.5,6.5V117c0,0.2,0.1,0.4,0.1,0.6l0.3,0.3c1.6,0.3,6.8,0.9,11.8-4.3c5-5.2,5.3-11.2,5.3-13.1l-0.1-0.1
		c-1.9-0.1-8,0.1-13.2,5.1c-2.8,2.7-3.9,5.4-4.2,7.6V89.9c0-1.7-1.4-3.1-3.1-3.1c-1.7,0-3.1,1.4-3.1,3.1v39.9
		c-0.8-1.9-2.1-3.9-4.1-5.8c-6.5-6.2-14.1-6.5-16.5-6.4l-0.1,0.1c0,2.3,0.3,9.8,6.6,16.3c5.8,6,11.7,5.8,14.1,5.4v17.2
		c0,4.6,1.7,8.7,4.5,11.9H28c-5.4,0-10-3.7-11.5-8.6c2.1,0.3,6.6,0.1,11-4.4c5-5.2,5.3-11.2,5.3-13.1l-0.1-0.1
		c-1.9-0.1-8,0.1-13.2,5.1c-2.6,2.5-3.7,5.1-4.1,7.2c-0.6-0.7-1.4-1.2-2.4-1.2c-0.5,0-1,0.1-1.4,0.4c-0.3-1.4-1-3.1-2.7-4.7
		c-3.4-3.3-7.5-3.4-8.8-3.4l0,0c0,1.2,0.2,5.2,3.5,8.6c2.4,2.4,4.7,3,6.3,3c0.4,9.7,8.4,17.4,18.2,17.4h28.5h4.8v2
		c0,0.6,0,1.2,0.1,1.8c-2.9-1.9-5.9-2-6.9-1.9l0,0c0,1.2,0.2,5.2,3.5,8.6c3,3.1,6.1,3.1,7.4,2.9c2.9,3.6,7.2,6,12,6.6
		c-1.6,0.4-3.6,1.3-5.6,3.3c-3.9,4-4.1,8.8-4.1,10.2l0.1,0.1c1.4,0.1,6.3-0.1,10.3-4c4.1-3.9,3.5-8.1,3.2-9.4l0,0h19.6
		c-1,0.4-2,1.1-3,2.2c-3.3,3.4-3.5,7.4-3.5,8.6l0,0c1.2,0.1,5.3-0.1,8.7-3.4c3-2.9,3-5.9,2.8-7.4c6,0.6,10.7,5.7,10.7,11.9v18.8
		c0,6.6-5.3,11.9-11.9,11.9c-1.7,0-3.1,1.4-3.1,3.1s1.4,3.1,3.1,3.1c10,0,18.2-8.2,18.2-18.2V207c0-2.8-0.6-5.4-1.7-7.7
		c7.9-2,13.9-9.1,13.9-17.7v-5.1C136.7,176.5,139.6,176.1,142.5,173.2z M116.9,193.5c-3.2-2.9-7.5-4.7-12.2-4.7h-0.1c0,0,0,0,0,0
		H85.9c0.9-0.4,1.8-1.1,2.7-2c3.2-3.4,3.4-7.3,3.4-8.5l0,0c-1.2-0.1-5.2,0.1-8.6,3.3c-2.9,2.8-3,5.8-2.8,7.2h-1.2
		c-6.6,0-11.9-5.3-11.9-11.9v-2h14.1H92h24.8c4.6,0,8.7-1.7,11.9-4.5v11.2C128.8,188.1,123.4,193.4,116.9,193.5z"/>
	<path fill="#3B3A33" d="M154.6,35.4c1,0.2,4.4,0.6,7.6-2.8c3.3-3.4,3.4-7.3,3.4-8.5l0,0c-1.2,0-5.2,0.1-8.6,3.3
		c-3.4,3.3-2.9,6.7-2.7,7.8L154.6,35.4z"/>
	<path fill="#3B3A33" d="M256.1,141.2L256.1,141.2c-1.4-0.1-5.9,0-9.7,3.7c-0.6,0.5-1,1.1-1.4,1.6c-0.5-1.2-1.6-2-2.9-2
		c-1.7,0-3.1,1.4-3.1,3.1v18.2c-0.7-1.6-1.7-3.2-3.4-4.8c-5.2-5-11.3-5.2-13.1-5.1l-0.1,0.1c0,1.8,0.3,7.8,5.2,13
		c4.6,4.8,9.4,4.6,11.3,4.3c-0.3,6.3-5.5,11.4-11.9,11.4h-29c1.1-0.6,2.1-1.4,3.2-2.5c4.7-4.9,5-10.5,4.9-12.2l-0.1-0.1
		c-1.7-0.1-7.5,0.1-12.4,4.8c-4,3.8-4.3,7.9-4,10.1h-13.5c-6.2,0-11.2-4.7-11.9-10.7h20.3c0.9,0,1.7-0.4,2.3-1
		c1.5-0.1,3.5-0.7,5.4-2.8c3.1-3.2,3.3-7,3.3-8.1l0,0c-1.2,0-5,0.1-8.2,3.2c-0.9,0.9-1.5,1.8-1.9,2.6c-0.3-0.1-0.5-0.1-0.8-0.1
		h-25.1c-10,0-18.2,8.2-18.2,18.2v39.9c0,10,8.2,18.2,18.2,18.2c1.7,0,3.1-1.4,3.1-3.1s-1.4-3.1-3.1-3.1c-6.6,0-11.9-5.4-11.9-11.9
		v-20.4c1.1,0.1,3.1-0.1,5.1-2.1c2.4-2.5,2.5-5.4,2.5-6.2l0,0c-0.9,0-3.8,0-6.3,2.4c-0.6,0.5-1,1.1-1.3,1.6v-7.8
		c1.5,0.1,3.9-0.3,6.3-2.8c3.1-3.2,3.3-7,3.3-8.1l0,0c-1.2,0-5,0.1-8.2,3.2c-0.5,0.5-0.9,1-1.3,1.5v-1c0-6.1,4.6-11.1,10.4-11.8
		c0.7,9.4,8.6,16.8,18.1,16.8h27.3c-0.3,2-0.2,6.2,4.1,10.4c4.8,4.7,10.5,5,12.2,4.9l0.1-0.1c0.1-1.7-0.1-7.5-4.8-12.4
		c-1.3-1.3-2.6-2.2-3.8-2.9h15.7c10,0,18.2-8.2,18.2-18.2V154c1.7,0,4.4-0.6,7-3.3C255.9,146.9,256.1,142.5,256.1,141.2z"/>
</g>
<g>
</g>
<g>
</g>
<g>
</g>
<g>
</g>
<g>
</g>
<g>
</g>
<g>
</g>
<g>
</g>
<g>
</g>
<g>
</g>
<g>
</g>
<g>
</g>
<g>
</g>
<g>
</g>
<g>
</g>
</svg>
